<?xml version="1.0" encoding="iso-8859-1"?>
<!-- Generator: Adobe Illustrator 19.2.0, SVG Export Plug-In . SVG Version: 6.00 Build 0)  -->
<svg xmlns="http://www.w3.org/2000/svg" xmlns:xlink="http://www.w3.org/1999/xlink" version="1.1" id="Layer_1" x="0px" y="0px" viewBox="0 0 40 40" style="enable-background:new 0 0 40 40;" xml:space="preserve">
<polyline style="fill:none;stroke:#4788C7;stroke-miterlimit:10;" points="36,4 30,11 23,7 17,14 10,10 4,15 "/>
<g>
	<circle style="fill:#98CCFD;" cx="4" cy="15" r="1.5"/>
	<g>
		<path style="fill:#4788C7;" d="M4,14c0.551,0,1,0.449,1,1s-0.449,1-1,1s-1-0.449-1-1S3.449,14,4,14 M4,13c-1.105,0-2,0.895-2,2    s0.895,2,2,2s2-0.895,2-2S5.105,13,4,13L4,13z"/>
	</g>
</g>
<g>
	<circle style="fill:#98CCFD;" cx="10" cy="10" r="1.5"/>
	<g>
		<path style="fill:#4788C7;" d="M10,9c0.551,0,1,0.449,1,1s-0.449,1-1,1s-1-0.449-1-1S9.449,9,10,9 M10,8c-1.105,0-2,0.895-2,2    s0.895,2,2,2s2-0.895,2-2S11.105,8,10,8L10,8z"/>
	</g>
</g>
<g>
	<circle style="fill:#98CCFD;" cx="17" cy="14" r="1.5"/>
	<g>
		<path style="fill:#4788C7;" d="M17,13c0.551,0,1,0.449,1,1s-0.449,1-1,1s-1-0.449-1-1S16.449,13,17,13 M17,12    c-1.105,0-2,0.895-2,2s0.895,2,2,2s2-0.895,2-2S18.105,12,17,12L17,12z"/>
	</g>
</g>
<g>
	<circle style="fill:#98CCFD;" cx="23" cy="7" r="1.5"/>
	<g>
		<path style="fill:#4788C7;" d="M23,6c0.551,0,1,0.449,1,1s-0.449,1-1,1s-1-0.449-1-1S22.449,6,23,6 M23,5c-1.105,0-2,0.895-2,2    s0.895,2,2,2s2-0.895,2-2S24.105,5,23,5L23,5z"/>
	</g>
</g>
<g>
	<circle style="fill:#98CCFD;" cx="30" cy="11" r="1.5"/>
	<g>
		<path style="fill:#4788C7;" d="M30,10c0.551,0,1,0.449,1,1s-0.449,1-1,1s-1-0.449-1-1S29.449,10,30,10 M30,9c-1.105,0-2,0.895-2,2    s0.895,2,2,2s2-0.895,2-2S31.105,9,30,9L30,9z"/>
	</g>
</g>
<g>
	<circle style="fill:#98CCFD;" cx="36" cy="4" r="1.5"/>
	<g>
		<path style="fill:#4788C7;" d="M36,3c0.551,0,1,0.449,1,1s-0.449,1-1,1s-1-0.449-1-1S35.449,3,36,3 M36,2c-1.105,0-2,0.895-2,2    s0.895,2,2,2s2-0.895,2-2S37.105,2,36,2L36,2z"/>
	</g>
</g>
<g>
	<rect x="33.5" y="15.5" style="fill:#DFF0FE;" width="4" height="23"/>
	<g>
		<path style="fill:#4788C7;" d="M37,16v22h-3V16H37 M38,15h-5v24h5V15L38,15z"/>
	</g>
</g>
<g>
	<rect x="21.5" y="20.5" style="fill:#DFF0FE;" width="4" height="18"/>
	<g>
		<path style="fill:#4788C7;" d="M25,21v17h-3V21H25 M26,20h-5v19h5V20L26,20z"/>
	</g>
</g>
<g>
	<rect x="15.5" y="27.5" style="fill:#DFF0FE;" width="4" height="11"/>
	<g>
		<path style="fill:#4788C7;" d="M19,28v10h-3V28H19 M20,27h-5v12h5V27L20,27z"/>
	</g>
</g>
<g>
	<rect x="9.5" y="24.5" style="fill:#DFF0FE;" width="4" height="14"/>
	<g>
		<path style="fill:#4788C7;" d="M13,25v13h-3V25H13 M14,24H9v15h5V24L14,24z"/>
	</g>
</g>
<g>
	<rect x="3.5" y="29.5" style="fill:#DFF0FE;" width="4" height="9"/>
	<g>
		<path style="fill:#4788C7;" d="M7,30v8H4v-8H7 M8,29H3v10h5V29L8,29z"/>
	</g>
</g>
<g>
	<rect x="27.5" y="23.5" style="fill:#DFF0FE;" width="4" height="15"/>
	<g>
		<path style="fill:#4788C7;" d="M31,24v14h-3V24H31 M32,23h-5v16h5V23L32,23z"/>
	</g>
</g>
</svg>
